<svg xmlns="http://www.w3.org/2000/svg" viewBox="0 0 360 360" width="360" height="360">
<defs>
  <radialGradient id="rbgTro" cx="50%" cy="40%" r="65%">
    <stop offset="0%" stop-color="#141c28"/>
    <stop offset="100%" stop-color="#0D1117"/>
  </radialGradient>
  <radialGradient id="skinTro" cx="50%" cy="40%" r="60%">
    <stop offset="0%" stop-color="#9C6A40"/>
    <stop offset="100%" stop-color="#9C6A40" stop-opacity="0.85"/>
  </radialGradient>
</defs>
<rect width="360" height="360" fill="url(#rbgTro)"/><rect x="0" y="356" width="360" height="4" fill="#1A6FE8"/><ellipse cx="180" cy="160" rx="140" ry="160" fill="none" stroke="rgba(26,111,232,0.08)" stroke-width="40"/><path d="M80 360 Q60 310 90 260 L165 240 L195 240 L270 260 Q300 310 280 360 Z" fill="#9C6A40" opacity="0.9"/><path d="M80 360 Q60 310 90 275 L180 265 L270 275 Q300 310 280 360 Z" fill="#0D4DB5" opacity="0.85"/><rect x="162" y="230" width="36" height="22" rx="8" fill="#9C6A40"/><ellipse cx="180" cy="175" rx="44" ry="54" fill="url(#skinTro)"/><ellipse cx="140" cy="180" rx="10" ry="13" fill="#9C6A40"/><ellipse cx="220" cy="180" rx="10" ry="13" fill="#9C6A40"/><ellipse cx="164" cy="167" rx="9" ry="6" fill="rgba(0,0,0,0.6)"/><ellipse cx="196" cy="167" rx="9" ry="6" fill="rgba(0,0,0,0.6)"/><circle cx="165" cy="167" r="4" fill="#1a0a00"/><circle cx="197" cy="167" r="4" fill="#1a0a00"/><circle cx="167" cy="164" r="2" fill="rgba(255,255,255,0.7)"/><circle cx="199" cy="164" r="2" fill="rgba(255,255,255,0.7)"/><path d="M155 159 Q165 155 173 159" stroke="#2a1a08" stroke-width="3" fill="none" stroke-linecap="round"/><path d="M187 159 Q195 155 205 159" stroke="#2a1a08" stroke-width="3" fill="none" stroke-linecap="round"/><path d="M180 171 Q173 183 171 187 M180 171 Q187 183 189 187" stroke="#9C6A40" stroke-width="2.5" fill="none" opacity="0.6"/><path d="M168 197 Q180 202 192 197" stroke="rgba(0,0,0,0.35)" stroke-width="2" fill="none"/><ellipse cx="180" cy="203" rx="30" ry="18" fill="rgba(0,0,0,0.25)"/><ellipse cx="162" cy="195" rx="12" ry="10" fill="rgba(0,0,0,0.2)"/><ellipse cx="198" cy="195" rx="12" ry="10" fill="rgba(0,0,0,0.2)"/><ellipse cx="180" cy="135" rx="44" ry="24" fill="#0a0a0a"/><rect x="0" y="308" width="360" height="52" fill="rgba(0,0,0,0.55)"/><text x="180" y="330" font-family="Arial Narrow,sans-serif" font-size="16" font-weight="700" fill="#ffffff" text-anchor="middle" letter-spacing="2">TROY VASCONCELOS</text><text x="180" y="348" font-family="Arial Narrow,sans-serif" font-size="11" fill="#1A6FE8" text-anchor="middle" letter-spacing="2">Lightweight · Record TBC</text></svg>