<svg xmlns="http://www.w3.org/2000/svg" viewBox="0 0 360 360" width="360" height="360">
<defs>
  <radialGradient id="rbgDar" cx="50%" cy="40%" r="65%">
    <stop offset="0%" stop-color="#141c28"/>
    <stop offset="100%" stop-color="#0D1117"/>
  </radialGradient>
  <radialGradient id="skinDar" cx="50%" cy="40%" r="60%">
    <stop offset="0%" stop-color="#8B6343"/>
    <stop offset="100%" stop-color="#8B6343" stop-opacity="0.85"/>
  </radialGradient>
</defs>
<rect width="360" height="360" fill="url(#rbgDar)"/><rect x="0" y="356" width="360" height="4" fill="#1A6FE8"/><ellipse cx="180" cy="160" rx="140" ry="160" fill="none" stroke="rgba(26,111,232,0.08)" stroke-width="40"/><path d="M75 360 Q55 310 85 260 L165 240 L195 240 L275 260 Q305 310 285 360 Z" fill="#8B6343" opacity="0.9"/><path d="M75 360 Q55 310 85 275 L180 265 L275 275 Q305 310 285 360 Z" fill="#1A6FE8" opacity="0.85"/><rect x="162" y="230" width="36" height="22" rx="8" fill="#8B6343"/><ellipse cx="180" cy="178" rx="46" ry="48" fill="url(#skinDar)"/><ellipse cx="138" cy="183" rx="10" ry="13" fill="#8B6343"/><ellipse cx="222" cy="183" rx="10" ry="13" fill="#8B6343"/><ellipse cx="164" cy="170" rx="9" ry="6" fill="rgba(0,0,0,0.6)"/><ellipse cx="196" cy="170" rx="9" ry="6" fill="rgba(0,0,0,0.6)"/><circle cx="165" cy="170" r="4" fill="#1a0a00"/><circle cx="197" cy="170" r="4" fill="#1a0a00"/><circle cx="167" cy="167" r="2" fill="rgba(255,255,255,0.7)"/><circle cx="199" cy="167" r="2" fill="rgba(255,255,255,0.7)"/><path d="M155 162 Q165 158 173 162" stroke="#2a1a08" stroke-width="3" fill="none" stroke-linecap="round"/><path d="M187 162 Q195 158 205 162" stroke="#2a1a08" stroke-width="3" fill="none" stroke-linecap="round"/><path d="M180 174 Q173 186 171 190 M180 174 Q187 186 189 190" stroke="#8B6343" stroke-width="2.5" fill="none" opacity="0.6"/><path d="M168 200 Q180 205 192 200" stroke="rgba(0,0,0,0.35)" stroke-width="2" fill="none"/><ellipse cx="180" cy="206" rx="30" ry="18" fill="rgba(0,0,0,0.25)"/><ellipse cx="162" cy="198" rx="12" ry="10" fill="rgba(0,0,0,0.2)"/><ellipse cx="198" cy="198" rx="12" ry="10" fill="rgba(0,0,0,0.2)"/><ellipse cx="180" cy="142" rx="46" ry="22" fill="#111" opacity="0.9"/><rect x="130" y="305" width="100" height="18" fill="#1A6FE8" rx="4" opacity="0.7"/><text x="180" y="318" font-family="Arial Narrow,sans-serif" font-size="9" font-weight="700" fill="#ffffff" text-anchor="middle" letter-spacing="2">CHAMPION</text><path d="M140 295 Q145 270 155 260" stroke="rgba(26,111,232,0.4)" stroke-width="2" fill="none"/><rect x="0" y="308" width="360" height="52" fill="rgba(0,0,0,0.55)"/><text x="180" y="330" font-family="Arial Narrow,sans-serif" font-size="16" font-weight="700" fill="#ffffff" text-anchor="middle" letter-spacing="2">DARIUS KANE</text><text x="180" y="348" font-family="Arial Narrow,sans-serif" font-size="11" fill="#1A6FE8" text-anchor="middle" letter-spacing="2">Lightweight · 2–3–0 · Champion</text></svg>