<svg xmlns="http://www.w3.org/2000/svg" viewBox="0 0 600 600" width="600" height="600"><defs><radialGradient id="igbg" cx="50%" cy="40%" r="70%"><stop offset="0%" stop-color="#0e1e30"/><stop offset="100%" stop-color="#060e14"/></radialGradient></defs><rect width="600" height="600" fill="url(#igbg)"/><rect x="0" y="0" width="600" height="4" fill="#D4AF37"/><text x="300" y="56" font-family="Arial Narrow,sans-serif" font-size="12" font-weight="700" fill="#D4AF37" text-anchor="middle" letter-spacing="5">ACS 24 · BRACKET REVEAL</text><text x="300" y="115" font-family="Arial Black,sans-serif" font-size="50" fill="#ffffff" text-anchor="middle">WINNER</text><text x="300" y="163" font-family="Arial Black,sans-serif" font-size="50" fill="#ffffff" text-anchor="middle">TAKES ALL</text><rect x="40" y="200" width="170" height="50" fill="rgba(26,111,232,0.12)" stroke="rgba(26,111,232,0.4)" stroke-width="1" rx="2"/><text x="125" y="230" font-family="Arial Narrow,sans-serif" font-size="12" font-weight="700" fill="rgba(255,255,255,0.5)" text-anchor="middle" letter-spacing="2">TBC</text><line x1="210" y1="225" x2="230" y2="225" stroke="rgba(26,111,232,0.4)" stroke-width="1"/><rect x="40" y="270" width="170" height="50" fill="rgba(26,111,232,0.12)" stroke="rgba(26,111,232,0.4)" stroke-width="1" rx="2"/><text x="125" y="300" font-family="Arial Narrow,sans-serif" font-size="12" font-weight="700" fill="rgba(255,255,255,0.5)" text-anchor="middle" letter-spacing="2">TBC</text><line x1="210" y1="295" x2="230" y2="295" stroke="rgba(26,111,232,0.4)" stroke-width="1"/><rect x="40" y="340" width="170" height="50" fill="rgba(26,111,232,0.12)" stroke="rgba(26,111,232,0.4)" stroke-width="1" rx="2"/><text x="125" y="370" font-family="Arial Narrow,sans-serif" font-size="12" font-weight="700" fill="rgba(255,255,255,0.5)" text-anchor="middle" letter-spacing="2">TBC</text><line x1="210" y1="365" x2="230" y2="365" stroke="rgba(26,111,232,0.4)" stroke-width="1"/><rect x="40" y="410" width="170" height="50" fill="rgba(26,111,232,0.12)" stroke="rgba(26,111,232,0.4)" stroke-width="1" rx="2"/><text x="125" y="440" font-family="Arial Narrow,sans-serif" font-size="12" font-weight="700" fill="rgba(255,255,255,0.5)" text-anchor="middle" letter-spacing="2">TBC</text><line x1="210" y1="435" x2="230" y2="435" stroke="rgba(26,111,232,0.4)" stroke-width="1"/><rect x="230" y="235" width="150" height="50" fill="rgba(26,111,232,0.18)" stroke="#1A6FE8" stroke-width="1" rx="2"/><text x="305" y="265" font-family="Arial Narrow,sans-serif" font-size="12" font-weight="700" fill="rgba(255,255,255,0.6)" text-anchor="middle" letter-spacing="2">SEMI FINAL</text><line x1="380" y1="260" x2="400" y2="260" stroke="rgba(26,111,232,0.4)" stroke-width="1"/><rect x="230" y="375" width="150" height="50" fill="rgba(26,111,232,0.18)" stroke="#1A6FE8" stroke-width="1" rx="2"/><text x="305" y="405" font-family="Arial Narrow,sans-serif" font-size="12" font-weight="700" fill="rgba(255,255,255,0.6)" text-anchor="middle" letter-spacing="2">SEMI FINAL</text><line x1="380" y1="400" x2="400" y2="400" stroke="rgba(26,111,232,0.4)" stroke-width="1"/><rect x="400" y="305" width="158" height="58" fill="#D4AF37" rx="3"/><text x="479" y="338" font-family="Arial Narrow,sans-serif" font-size="14" font-weight="700" fill="#0D1117" text-anchor="middle" letter-spacing="2">GRAND FINAL</text><rect x="0" y="556" width="600" height="44" fill="rgba(0,0,0,0.6)"/><text x="20" y="584" font-family="Arial Narrow,sans-serif" font-size="14" font-weight="700" fill="#ffffff" letter-spacing="1">@apexcombatseries</text><rect x="0" y="556" width="3" height="44" fill="#D4AF37"/></svg>