<svg xmlns="http://www.w3.org/2000/svg" viewBox="0 0 600 600" width="600" height="600"><defs><radialGradient id="igbg" cx="50%" cy="40%" r="70%"><stop offset="0%" stop-color="#0e1a28"/><stop offset="100%" stop-color="#080e16"/></radialGradient></defs><rect width="600" height="600" fill="url(#igbg)"/><line x1="0" y1="0" x2="0" y2="600" stroke="rgba(255,255,255,0.02)" stroke-width="1"/><line x1="50" y1="0" x2="50" y2="600" stroke="rgba(255,255,255,0.02)" stroke-width="1"/><line x1="100" y1="0" x2="100" y2="600" stroke="rgba(255,255,255,0.02)" stroke-width="1"/><line x1="150" y1="0" x2="150" y2="600" stroke="rgba(255,255,255,0.02)" stroke-width="1"/><line x1="200" y1="0" x2="200" y2="600" stroke="rgba(255,255,255,0.02)" stroke-width="1"/><line x1="250" y1="0" x2="250" y2="600" stroke="rgba(255,255,255,0.02)" stroke-width="1"/><line x1="300" y1="0" x2="300" y2="600" stroke="rgba(255,255,255,0.02)" stroke-width="1"/><line x1="350" y1="0" x2="350" y2="600" stroke="rgba(255,255,255,0.02)" stroke-width="1"/><line x1="400" y1="0" x2="400" y2="600" stroke="rgba(255,255,255,0.02)" stroke-width="1"/><line x1="450" y1="0" x2="450" y2="600" stroke="rgba(255,255,255,0.02)" stroke-width="1"/><line x1="500" y1="0" x2="500" y2="600" stroke="rgba(255,255,255,0.02)" stroke-width="1"/><line x1="550" y1="0" x2="550" y2="600" stroke="rgba(255,255,255,0.02)" stroke-width="1"/><circle cx="260" cy="230" r="38" fill="rgba(200,149,108,0.9)"/><path d="M200 280 Q260 258 320 280 L315 400 L205 400 Z" fill="rgba(200,149,108,0.88)"/><path d="M315 290 Q360 270 400 260 L398 285 Q360 298 313 315 Z" fill="rgba(200,149,108,0.9)"/><ellipse cx="400" cy="270" rx="28" ry="24" fill="#D93025" opacity="0.85"/><rect x="40" y="40" width="160" height="32" fill="#1A6FE8" rx="2"/><text x="120" y="62" font-family="Arial Narrow,sans-serif" font-size="14" font-weight="700" fill="#ffffff" text-anchor="middle" letter-spacing="2">TRAINING CAMP</text><text x="300" y="465" font-family="Arial Black,sans-serif" font-size="42" fill="#ffffff" text-anchor="middle">FERREIRA</text><text x="300" y="504" font-family="Arial Narrow,sans-serif" font-size="16" font-weight="700" fill="#1A6FE8" text-anchor="middle" letter-spacing="3">ACS 24 · LIGHTWEIGHT CO-MAIN</text><rect x="0" y="556" width="600" height="44" fill="rgba(0,0,0,0.6)"/><text x="20" y="584" font-family="Arial Narrow,sans-serif" font-size="14" font-weight="700" fill="#ffffff" letter-spacing="1">@apexcombatseries</text><rect x="0" y="556" width="3" height="44" fill="#1A6FE8"/></svg>