<svg xmlns="http://www.w3.org/2000/svg" viewBox="0 0 600 600" width="600" height="600"><defs><radialGradient id="igbg" cx="50%" cy="40%" r="70%"><stop offset="0%" stop-color="#141e30"/><stop offset="100%" stop-color="#0a0c14"/></radialGradient></defs><rect width="600" height="600" fill="url(#igbg)"/><circle cx="114" cy="6" r="4.224651499279499" fill="#1A6FE8" opacity="0.51"/><circle cx="104" cy="173" r="4.222003234003028" fill="#D4AF37" opacity="0.70"/><circle cx="32" cy="7" r="2.2810857195847776" fill="#1A6FE8" opacity="0.65"/><circle cx="27" cy="143" r="2.5965129520599453" fill="#D93025" opacity="0.51"/><circle cx="284" cy="207" r="4.607900962378801" fill="#1A6FE8" opacity="0.75"/><circle cx="348" cy="71" r="2.4664384994353448" fill="#ffffff" opacity="0.45"/><circle cx="389" cy="24" r="3.0769381414538852" fill="#ffffff" opacity="0.70"/><circle cx="44" cy="186" r="3.378274639015528" fill="#D4AF37" opacity="0.89"/><circle cx="387" cy="20" r="3.656121893819681" fill="#ffffff" opacity="0.69"/><circle cx="71" cy="11" r="3.9837899557031307" fill="#ffffff" opacity="0.89"/><circle cx="238" cy="221" r="2.3030042882291872" fill="#ffffff" opacity="0.63"/><circle cx="373" cy="41" r="3.110542901350648" fill="#1A6FE8" opacity="0.74"/><circle cx="73" cy="155" r="3.9049348645911808" fill="#1A6FE8" opacity="0.48"/><circle cx="388" cy="69" r="4.9685700519097855" fill="#1A6FE8" opacity="0.74"/><circle cx="57" cy="58" r="4.465407782020425" fill="#ffffff" opacity="0.60"/><circle cx="67" cy="54" r="4.739408372556635" fill="#ffffff" opacity="0.51"/><circle cx="511" cy="101" r="4.654049461660108" fill="#D93025" opacity="0.47"/><circle cx="142" cy="63" r="4.23496694627482" fill="#ffffff" opacity="0.77"/><circle cx="438" cy="229" r="3.750598774836969" fill="#ffffff" opacity="0.51"/><circle cx="141" cy="130" r="3.480547504668893" fill="#D4AF37" opacity="0.83"/><circle cx="156" cy="160" r="2.479946005167351" fill="#D93025" opacity="0.70"/><circle cx="394" cy="97" r="3.787665285083384" fill="#D93025" opacity="0.66"/><circle cx="566" cy="220" r="4.827292584139429" fill="#D4AF37" opacity="0.74"/><circle cx="549" cy="192" r="2.8004755698576282" fill="#ffffff" opacity="0.46"/><circle cx="445" cy="40" r="3.3611711189876194" fill="#ffffff" opacity="0.89"/><circle cx="182" cy="129" r="4.737883518034462" fill="#ffffff" opacity="0.82"/><circle cx="519" cy="155" r="2.596733305294199" fill="#ffffff" opacity="0.78"/><circle cx="552" cy="244" r="4.335879435891675" fill="#D4AF37" opacity="0.70"/><circle cx="500" cy="4" r="2.335603175962685" fill="#ffffff" opacity="0.84"/><circle cx="314" cy="61" r="2.173775499482563" fill="#D4AF37" opacity="0.44"/><circle cx="497" cy="208" r="2.207637555405151" fill="#1A6FE8" opacity="0.46"/><circle cx="486" cy="242" r="3.649410780484832" fill="#ffffff" opacity="0.66"/><circle cx="433" cy="246" r="2.6353946163262463" fill="#1A6FE8" opacity="0.76"/><circle cx="408" cy="171" r="3.9496341729183606" fill="#D93025" opacity="0.85"/><circle cx="462" cy="30" r="2.7437168409980237" fill="#D4AF37" opacity="0.57"/><circle cx="567" cy="58" r="3.7653203432310534" fill="#D4AF37" opacity="0.44"/><circle cx="60" cy="58" r="2.2022009843309225" fill="#D4AF37" opacity="0.83"/><circle cx="72" cy="131" r="2.7140139031069856" fill="#D93025" opacity="0.51"/><circle cx="135" cy="185" r="4.806542721742013" fill="#D93025" opacity="0.52"/><circle cx="484" cy="206" r="3.22117988445781" fill="#D4AF37" opacity="0.45"/><circle cx="441" cy="90" r="3.270735869059762" fill="#D93025" opacity="0.83"/><circle cx="55" cy="172" r="3.960366464797375" fill="#D4AF37" opacity="0.43"/><circle cx="347" cy="204" r="4.585017609058373" fill="#1A6FE8" opacity="0.50"/><circle cx="549" cy="114" r="2.4205468912843235" fill="#1A6FE8" opacity="0.54"/><circle cx="255" cy="223" r="4.769796797828039" fill="#D93025" opacity="0.80"/><circle cx="563" cy="25" r="2.1517649885746435" fill="#D4AF37" opacity="0.88"/><circle cx="242" cy="42" r="3.219242173857416" fill="#D93025" opacity="0.51"/><circle cx="410" cy="231" r="2.175906199916537" fill="#D93025" opacity="0.40"/><circle cx="399" cy="67" r="4.7795542206779995" fill="#D93025" opacity="0.54"/><circle cx="569" cy="169" r="4.155224825888978" fill="#1A6FE8" opacity="0.49"/><circle cx="222" cy="247" r="2.175449876021898" fill="#D4AF37" opacity="0.77"/><circle cx="58" cy="12" r="3.7525327833769135" fill="#1A6FE8" opacity="0.43"/><circle cx="520" cy="20" r="4.554027636032364" fill="#D4AF37" opacity="0.70"/><circle cx="240" cy="103" r="2.3596598418413723" fill="#1A6FE8" opacity="0.69"/><circle cx="40" cy="158" r="2.2459502164846263" fill="#ffffff" opacity="0.87"/><circle cx="209" cy="171" r="4.148575402368245" fill="#1A6FE8" opacity="0.53"/><circle cx="134" cy="171" r="3.9365023665129484" fill="#D93025" opacity="0.56"/><circle cx="74" cy="2" r="3.3748565678557583" fill="#D4AF37" opacity="0.44"/><circle cx="218" cy="129" r="2.795601244251204" fill="#ffffff" opacity="0.84"/><circle cx="250" cy="94" r="2.8549621736499704" fill="#D93025" opacity="0.82"/><circle cx="309" cy="156" r="4.951559930754447" fill="#D4AF37" opacity="0.73"/><circle cx="567" cy="76" r="4.795268118308233" fill="#D4AF37" opacity="0.87"/><circle cx="137" cy="67" r="2.3462860112573067" fill="#D4AF37" opacity="0.77"/><circle cx="159" cy="69" r="2.845268814373683" fill="#1A6FE8" opacity="0.76"/><circle cx="208" cy="175" r="3.9027138766552394" fill="#ffffff" opacity="0.65"/><circle cx="257" cy="231" r="4.724477138655716" fill="#D4AF37" opacity="0.45"/><circle cx="433" cy="212" r="2.830040671916755" fill="#D4AF37" opacity="0.57"/><circle cx="133" cy="163" r="4.939393861486508" fill="#1A6FE8" opacity="0.77"/><circle cx="564" cy="180" r="3.283060756942038" fill="#D4AF37" opacity="0.46"/><circle cx="152" cy="139" r="2.1080844141824917" fill="#ffffff" opacity="0.69"/><circle cx="151" cy="110" r="2.382336557846416" fill="#ffffff" opacity="0.58"/><circle cx="40" cy="230" r="3.0734276967512786" fill="#1A6FE8" opacity="0.73"/><circle cx="362" cy="199" r="3.679650557431609" fill="#D93025" opacity="0.89"/><circle cx="158" cy="236" r="4.789643047081023" fill="#1A6FE8" opacity="0.89"/><circle cx="181" cy="225" r="3.236883231061392" fill="#1A6FE8" opacity="0.77"/><circle cx="340" cy="200" r="4.792447658144977" fill="#1A6FE8" opacity="0.53"/><circle cx="110" cy="97" r="4.616500348718269" fill="#D93025" opacity="0.51"/><circle cx="471" cy="89" r="2.9155726020158017" fill="#1A6FE8" opacity="0.51"/><circle cx="197" cy="102" r="2.9847858535931193" fill="#D4AF37" opacity="0.88"/><circle cx="285" cy="89" r="3.924445215822883" fill="#D93025" opacity="0.74"/><ellipse cx="300" cy="300" rx="220" ry="280" fill="rgba(255,255,200,0.06)"/><circle cx="300" cy="220" r="40" fill="rgba(200,140,80,0.9)"/><path d="M230 270 Q300 250 370 270 L365 370 L235 370 Z" fill="rgba(200,140,80,0.88)"/><path d="M230 265 Q185 215 155 185 L168 170 Q200 198 245 250 Z" fill="rgba(200,140,80,0.88)"/><path d="M370 265 Q415 215 445 185 L432 170 Q400 198 355 250 Z" fill="rgba(200,140,80,0.88)"/><rect x="230" y="355" width="140" height="26" fill="#D4AF37" rx="4"/><text x="300" y="373" font-family="Arial Narrow,sans-serif" font-size="10" font-weight="700" fill="#0D1117" text-anchor="middle" letter-spacing="2">ACS CHAMPION</text><text x="300" y="460" font-family="Arial Black,sans-serif" font-size="52" fill="#ffffff" text-anchor="middle">KANE</text><text x="300" y="508" font-family="Arial Narrow,sans-serif" font-size="18" font-weight="700" fill="#D4AF37" text-anchor="middle" letter-spacing="4">STILL CHAMPION</text><rect x="0" y="556" width="600" height="44" fill="rgba(0,0,0,0.6)"/><text x="20" y="584" font-family="Arial Narrow,sans-serif" font-size="14" font-weight="700" fill="#ffffff" letter-spacing="1">@apexcombatseries</text><rect x="0" y="556" width="3" height="44" fill="#1A6FE8"/></svg>