<svg xmlns="http://www.w3.org/2000/svg" viewBox="0 0 800 500" width="800" height="500"><defs><linearGradient id="trg" x1="0" y1="0" x2="0" y2="1"><stop offset="0%" stop-color="#0a1018"/><stop offset="100%" stop-color="#05080e"/></linearGradient></defs><rect width="800" height="500" fill="url(#trg)"/><line x1="0" y1="0" x2="0" y2="500" stroke="rgba(255,255,255,0.02)" stroke-width="1"/><line x1="60" y1="0" x2="60" y2="500" stroke="rgba(255,255,255,0.02)" stroke-width="1"/><line x1="120" y1="0" x2="120" y2="500" stroke="rgba(255,255,255,0.02)" stroke-width="1"/><line x1="180" y1="0" x2="180" y2="500" stroke="rgba(255,255,255,0.02)" stroke-width="1"/><line x1="240" y1="0" x2="240" y2="500" stroke="rgba(255,255,255,0.02)" stroke-width="1"/><line x1="300" y1="0" x2="300" y2="500" stroke="rgba(255,255,255,0.02)" stroke-width="1"/><line x1="360" y1="0" x2="360" y2="500" stroke="rgba(255,255,255,0.02)" stroke-width="1"/><line x1="420" y1="0" x2="420" y2="500" stroke="rgba(255,255,255,0.02)" stroke-width="1"/><line x1="480" y1="0" x2="480" y2="500" stroke="rgba(255,255,255,0.02)" stroke-width="1"/><line x1="540" y1="0" x2="540" y2="500" stroke="rgba(255,255,255,0.02)" stroke-width="1"/><line x1="600" y1="0" x2="600" y2="500" stroke="rgba(255,255,255,0.02)" stroke-width="1"/><line x1="660" y1="0" x2="660" y2="500" stroke="rgba(255,255,255,0.02)" stroke-width="1"/><line x1="720" y1="0" x2="720" y2="500" stroke="rgba(255,255,255,0.02)" stroke-width="1"/><line x1="780" y1="0" x2="780" y2="500" stroke="rgba(255,255,255,0.02)" stroke-width="1"/><line x1="0" y1="0" x2="800" y2="0" stroke="rgba(255,255,255,0.02)" stroke-width="1"/><line x1="0" y1="60" x2="800" y2="60" stroke="rgba(255,255,255,0.02)" stroke-width="1"/><line x1="0" y1="120" x2="800" y2="120" stroke="rgba(255,255,255,0.02)" stroke-width="1"/><line x1="0" y1="180" x2="800" y2="180" stroke="rgba(255,255,255,0.02)" stroke-width="1"/><line x1="0" y1="240" x2="800" y2="240" stroke="rgba(255,255,255,0.02)" stroke-width="1"/><line x1="0" y1="300" x2="800" y2="300" stroke="rgba(255,255,255,0.02)" stroke-width="1"/><line x1="0" y1="360" x2="800" y2="360" stroke="rgba(255,255,255,0.02)" stroke-width="1"/><line x1="0" y1="420" x2="800" y2="420" stroke="rgba(255,255,255,0.02)" stroke-width="1"/><line x1="0" y1="480" x2="800" y2="480" stroke="rgba(255,255,255,0.02)" stroke-width="1"/><circle cx="380" cy="201" r="20" fill="rgba(255,255,255,0.92)"/><path d="M360 230 Q380 220 400 230 L393 310 L367 310 Z" fill="rgba(255,255,255,0.92)"/><path d="M367 310 L360 351 L370 351 L380 320 Z" fill="rgba(255,255,255,0.92)"/><path d="M393 310 L400 351 L390 351 L380 320 Z" fill="rgba(255,255,255,0.92)"/><path d="M360 230 L319 260 L339 280 L370 265 Z" fill="rgba(255,255,255,0.92)"/><path d="M400 230 L441 260 L421 280 L390 265 Z" fill="rgba(255,255,255,0.92)"/><ellipse cx="500" cy="220" rx="28" ry="32" fill="rgba(26,111,232,0.8)"/><path d="M390 230 Q440 215 490 225 L488 248 Q438 240 388 255 Z" fill="rgba(255,255,255,0.9)"/><ellipse cx="480" cy="237" rx="25" ry="20" fill="#D93025" opacity="0.9"/><rect x="50" y="40" width="200" height="36" fill="#1A6FE8" rx="3"/><text x="150" y="64" font-family="Arial Narrow,sans-serif" font-size="16" font-weight="700" fill="#ffffff" text-anchor="middle" letter-spacing="3">APEX COMBAT SERIES</text><rect x="0" y="0" width="110" height="32" fill="#1A6FE8"/><text x="12" y="22" font-family="Arial Narrow,sans-serif" font-size="14" font-weight="700" fill="#fff" letter-spacing="3">FIGHTER FOCUS</text><rect x="0" y="444" width="800" height="56" fill="rgba(0,0,0,0.7)"/><text x="20" y="470" font-family="Arial Narrow,sans-serif" font-size="18" font-weight="700" fill="#ffffff" letter-spacing="1">RAYAN OSEI</text><text x="20" y="489" font-family="Arial Narrow,sans-serif" font-size="12" fill="rgba(255,255,255,0.5)" letter-spacing="2">FEATHERWEIGHT · UNBEATEN IN ACS</text></svg>