<svg xmlns="http://www.w3.org/2000/svg" viewBox="0 0 800 500" width="800" height="500"><defs><radialGradient id="nl" cx="400" cy="150" r="520.0" gradientUnits="userSpaceOnUse"><stop offset="0%" stop-color="#0e1628"/><stop offset="100%" stop-color="#0a0d12"/></radialGradient></defs><rect width="800" height="500" fill="url(#nl)"/><line x1="-500" y1="0" x2="0" y2="500" stroke="rgba(255,255,255,0.025)" stroke-width="1"/><line x1="-472" y1="0" x2="28" y2="500" stroke="rgba(255,255,255,0.025)" stroke-width="1"/><line x1="-444" y1="0" x2="56" y2="500" stroke="rgba(255,255,255,0.025)" stroke-width="1"/><line x1="-416" y1="0" x2="84" y2="500" stroke="rgba(255,255,255,0.025)" stroke-width="1"/><line x1="-388" y1="0" x2="112" y2="500" stroke="rgba(255,255,255,0.025)" stroke-width="1"/><line x1="-360" y1="0" x2="140" y2="500" stroke="rgba(255,255,255,0.025)" stroke-width="1"/><line x1="-332" y1="0" x2="168" y2="500" stroke="rgba(255,255,255,0.025)" stroke-width="1"/><line x1="-304" y1="0" x2="196" y2="500" stroke="rgba(255,255,255,0.025)" stroke-width="1"/><line x1="-276" y1="0" x2="224" y2="500" stroke="rgba(255,255,255,0.025)" stroke-width="1"/><line x1="-248" y1="0" x2="252" y2="500" stroke="rgba(255,255,255,0.025)" stroke-width="1"/><line x1="-220" y1="0" x2="280" y2="500" stroke="rgba(255,255,255,0.025)" stroke-width="1"/><line x1="-192" y1="0" x2="308" y2="500" stroke="rgba(255,255,255,0.025)" stroke-width="1"/><line x1="-164" y1="0" x2="336" y2="500" stroke="rgba(255,255,255,0.025)" stroke-width="1"/><line x1="-136" y1="0" x2="364" y2="500" stroke="rgba(255,255,255,0.025)" stroke-width="1"/><line x1="-108" y1="0" x2="392" y2="500" stroke="rgba(255,255,255,0.025)" stroke-width="1"/><line x1="-80" y1="0" x2="420" y2="500" stroke="rgba(255,255,255,0.025)" stroke-width="1"/><line x1="-52" y1="0" x2="448" y2="500" stroke="rgba(255,255,255,0.025)" stroke-width="1"/><line x1="-24" y1="0" x2="476" y2="500" stroke="rgba(255,255,255,0.025)" stroke-width="1"/><line x1="4" y1="0" x2="504" y2="500" stroke="rgba(255,255,255,0.025)" stroke-width="1"/><line x1="32" y1="0" x2="532" y2="500" stroke="rgba(255,255,255,0.025)" stroke-width="1"/><line x1="60" y1="0" x2="560" y2="500" stroke="rgba(255,255,255,0.025)" stroke-width="1"/><line x1="88" y1="0" x2="588" y2="500" stroke="rgba(255,255,255,0.025)" stroke-width="1"/><line x1="116" y1="0" x2="616" y2="500" stroke="rgba(255,255,255,0.025)" stroke-width="1"/><line x1="144" y1="0" x2="644" y2="500" stroke="rgba(255,255,255,0.025)" stroke-width="1"/><line x1="172" y1="0" x2="672" y2="500" stroke="rgba(255,255,255,0.025)" stroke-width="1"/><line x1="200" y1="0" x2="700" y2="500" stroke="rgba(255,255,255,0.025)" stroke-width="1"/><line x1="228" y1="0" x2="728" y2="500" stroke="rgba(255,255,255,0.025)" stroke-width="1"/><line x1="256" y1="0" x2="756" y2="500" stroke="rgba(255,255,255,0.025)" stroke-width="1"/><line x1="284" y1="0" x2="784" y2="500" stroke="rgba(255,255,255,0.025)" stroke-width="1"/><line x1="312" y1="0" x2="812" y2="500" stroke="rgba(255,255,255,0.025)" stroke-width="1"/><line x1="340" y1="0" x2="840" y2="500" stroke="rgba(255,255,255,0.025)" stroke-width="1"/><line x1="368" y1="0" x2="868" y2="500" stroke="rgba(255,255,255,0.025)" stroke-width="1"/><line x1="396" y1="0" x2="896" y2="500" stroke="rgba(255,255,255,0.025)" stroke-width="1"/><line x1="424" y1="0" x2="924" y2="500" stroke="rgba(255,255,255,0.025)" stroke-width="1"/><line x1="452" y1="0" x2="952" y2="500" stroke="rgba(255,255,255,0.025)" stroke-width="1"/><line x1="480" y1="0" x2="980" y2="500" stroke="rgba(255,255,255,0.025)" stroke-width="1"/><line x1="508" y1="0" x2="1008" y2="500" stroke="rgba(255,255,255,0.025)" stroke-width="1"/><line x1="536" y1="0" x2="1036" y2="500" stroke="rgba(255,255,255,0.025)" stroke-width="1"/><line x1="564" y1="0" x2="1064" y2="500" stroke="rgba(255,255,255,0.025)" stroke-width="1"/><line x1="592" y1="0" x2="1092" y2="500" stroke="rgba(255,255,255,0.025)" stroke-width="1"/><line x1="620" y1="0" x2="1120" y2="500" stroke="rgba(255,255,255,0.025)" stroke-width="1"/><line x1="648" y1="0" x2="1148" y2="500" stroke="rgba(255,255,255,0.025)" stroke-width="1"/><line x1="676" y1="0" x2="1176" y2="500" stroke="rgba(255,255,255,0.025)" stroke-width="1"/><line x1="704" y1="0" x2="1204" y2="500" stroke="rgba(255,255,255,0.025)" stroke-width="1"/><line x1="732" y1="0" x2="1232" y2="500" stroke="rgba(255,255,255,0.025)" stroke-width="1"/><line x1="760" y1="0" x2="1260" y2="500" stroke="rgba(255,255,255,0.025)" stroke-width="1"/><line x1="788" y1="0" x2="1288" y2="500" stroke="rgba(255,255,255,0.025)" stroke-width="1"/><line x1="816" y1="0" x2="1316" y2="500" stroke="rgba(255,255,255,0.025)" stroke-width="1"/><line x1="844" y1="0" x2="1344" y2="500" stroke="rgba(255,255,255,0.025)" stroke-width="1"/><line x1="872" y1="0" x2="1372" y2="500" stroke="rgba(255,255,255,0.025)" stroke-width="1"/><line x1="900" y1="0" x2="1400" y2="500" stroke="rgba(255,255,255,0.025)" stroke-width="1"/><line x1="928" y1="0" x2="1428" y2="500" stroke="rgba(255,255,255,0.025)" stroke-width="1"/><line x1="956" y1="0" x2="1456" y2="500" stroke="rgba(255,255,255,0.025)" stroke-width="1"/><line x1="984" y1="0" x2="1484" y2="500" stroke="rgba(255,255,255,0.025)" stroke-width="1"/><line x1="1012" y1="0" x2="1512" y2="500" stroke="rgba(255,255,255,0.025)" stroke-width="1"/><line x1="1040" y1="0" x2="1540" y2="500" stroke="rgba(255,255,255,0.025)" stroke-width="1"/><line x1="1068" y1="0" x2="1568" y2="500" stroke="rgba(255,255,255,0.025)" stroke-width="1"/><line x1="1096" y1="0" x2="1596" y2="500" stroke="rgba(255,255,255,0.025)" stroke-width="1"/><line x1="1124" y1="0" x2="1624" y2="500" stroke="rgba(255,255,255,0.025)" stroke-width="1"/><line x1="1152" y1="0" x2="1652" y2="500" stroke="rgba(255,255,255,0.025)" stroke-width="1"/><line x1="1180" y1="0" x2="1680" y2="500" stroke="rgba(255,255,255,0.025)" stroke-width="1"/><line x1="1208" y1="0" x2="1708" y2="500" stroke="rgba(255,255,255,0.025)" stroke-width="1"/><line x1="1236" y1="0" x2="1736" y2="500" stroke="rgba(255,255,255,0.025)" stroke-width="1"/><line x1="1264" y1="0" x2="1764" y2="500" stroke="rgba(255,255,255,0.025)" stroke-width="1"/><line x1="1292" y1="0" x2="1792" y2="500" stroke="rgba(255,255,255,0.025)" stroke-width="1"/><line x1="0" y1="0" x2="-500" y2="500" stroke="rgba(255,255,255,0.018)" stroke-width="1"/><line x1="28" y1="0" x2="-472" y2="500" stroke="rgba(255,255,255,0.018)" stroke-width="1"/><line x1="56" y1="0" x2="-444" y2="500" stroke="rgba(255,255,255,0.018)" stroke-width="1"/><line x1="84" y1="0" x2="-416" y2="500" stroke="rgba(255,255,255,0.018)" stroke-width="1"/><line x1="112" y1="0" x2="-388" y2="500" stroke="rgba(255,255,255,0.018)" stroke-width="1"/><line x1="140" y1="0" x2="-360" y2="500" stroke="rgba(255,255,255,0.018)" stroke-width="1"/><line x1="168" y1="0" x2="-332" y2="500" stroke="rgba(255,255,255,0.018)" stroke-width="1"/><line x1="196" y1="0" x2="-304" y2="500" stroke="rgba(255,255,255,0.018)" stroke-width="1"/><line x1="224" y1="0" x2="-276" y2="500" stroke="rgba(255,255,255,0.018)" stroke-width="1"/><line x1="252" y1="0" x2="-248" y2="500" stroke="rgba(255,255,255,0.018)" stroke-width="1"/><line x1="280" y1="0" x2="-220" y2="500" stroke="rgba(255,255,255,0.018)" stroke-width="1"/><line x1="308" y1="0" x2="-192" y2="500" stroke="rgba(255,255,255,0.018)" stroke-width="1"/><line x1="336" y1="0" x2="-164" y2="500" stroke="rgba(255,255,255,0.018)" stroke-width="1"/><line x1="364" y1="0" x2="-136" y2="500" stroke="rgba(255,255,255,0.018)" stroke-width="1"/><line x1="392" y1="0" x2="-108" y2="500" stroke="rgba(255,255,255,0.018)" stroke-width="1"/><line x1="420" y1="0" x2="-80" y2="500" stroke="rgba(255,255,255,0.018)" stroke-width="1"/><line x1="448" y1="0" x2="-52" y2="500" stroke="rgba(255,255,255,0.018)" stroke-width="1"/><line x1="476" y1="0" x2="-24" y2="500" stroke="rgba(255,255,255,0.018)" stroke-width="1"/><line x1="504" y1="0" x2="4" y2="500" stroke="rgba(255,255,255,0.018)" stroke-width="1"/><line x1="532" y1="0" x2="32" y2="500" stroke="rgba(255,255,255,0.018)" stroke-width="1"/><line x1="560" y1="0" x2="60" y2="500" stroke="rgba(255,255,255,0.018)" stroke-width="1"/><line x1="588" y1="0" x2="88" y2="500" stroke="rgba(255,255,255,0.018)" stroke-width="1"/><line x1="616" y1="0" x2="116" y2="500" stroke="rgba(255,255,255,0.018)" stroke-width="1"/><line x1="644" y1="0" x2="144" y2="500" stroke="rgba(255,255,255,0.018)" stroke-width="1"/><line x1="672" y1="0" x2="172" y2="500" stroke="rgba(255,255,255,0.018)" stroke-width="1"/><line x1="700" y1="0" x2="200" y2="500" stroke="rgba(255,255,255,0.018)" stroke-width="1"/><line x1="728" y1="0" x2="228" y2="500" stroke="rgba(255,255,255,0.018)" stroke-width="1"/><line x1="756" y1="0" x2="256" y2="500" stroke="rgba(255,255,255,0.018)" stroke-width="1"/><line x1="784" y1="0" x2="284" y2="500" stroke="rgba(255,255,255,0.018)" stroke-width="1"/><line x1="812" y1="0" x2="312" y2="500" stroke="rgba(255,255,255,0.018)" stroke-width="1"/><line x1="840" y1="0" x2="340" y2="500" stroke="rgba(255,255,255,0.018)" stroke-width="1"/><line x1="868" y1="0" x2="368" y2="500" stroke="rgba(255,255,255,0.018)" stroke-width="1"/><line x1="896" y1="0" x2="396" y2="500" stroke="rgba(255,255,255,0.018)" stroke-width="1"/><line x1="924" y1="0" x2="424" y2="500" stroke="rgba(255,255,255,0.018)" stroke-width="1"/><line x1="952" y1="0" x2="452" y2="500" stroke="rgba(255,255,255,0.018)" stroke-width="1"/><line x1="980" y1="0" x2="480" y2="500" stroke="rgba(255,255,255,0.018)" stroke-width="1"/><line x1="1008" y1="0" x2="508" y2="500" stroke="rgba(255,255,255,0.018)" stroke-width="1"/><line x1="1036" y1="0" x2="536" y2="500" stroke="rgba(255,255,255,0.018)" stroke-width="1"/><line x1="1064" y1="0" x2="564" y2="500" stroke="rgba(255,255,255,0.018)" stroke-width="1"/><line x1="1092" y1="0" x2="592" y2="500" stroke="rgba(255,255,255,0.018)" stroke-width="1"/><line x1="1120" y1="0" x2="620" y2="500" stroke="rgba(255,255,255,0.018)" stroke-width="1"/><line x1="1148" y1="0" x2="648" y2="500" stroke="rgba(255,255,255,0.018)" stroke-width="1"/><line x1="1176" y1="0" x2="676" y2="500" stroke="rgba(255,255,255,0.018)" stroke-width="1"/><line x1="1204" y1="0" x2="704" y2="500" stroke="rgba(255,255,255,0.018)" stroke-width="1"/><line x1="1232" y1="0" x2="732" y2="500" stroke="rgba(255,255,255,0.018)" stroke-width="1"/><line x1="1260" y1="0" x2="760" y2="500" stroke="rgba(255,255,255,0.018)" stroke-width="1"/><line x1="1288" y1="0" x2="788" y2="500" stroke="rgba(255,255,255,0.018)" stroke-width="1"/><line x1="1316" y1="0" x2="816" y2="500" stroke="rgba(255,255,255,0.018)" stroke-width="1"/><line x1="1344" y1="0" x2="844" y2="500" stroke="rgba(255,255,255,0.018)" stroke-width="1"/><line x1="1372" y1="0" x2="872" y2="500" stroke="rgba(255,255,255,0.018)" stroke-width="1"/><line x1="1400" y1="0" x2="900" y2="500" stroke="rgba(255,255,255,0.018)" stroke-width="1"/><line x1="1428" y1="0" x2="928" y2="500" stroke="rgba(255,255,255,0.018)" stroke-width="1"/><line x1="1456" y1="0" x2="956" y2="500" stroke="rgba(255,255,255,0.018)" stroke-width="1"/><line x1="1484" y1="0" x2="984" y2="500" stroke="rgba(255,255,255,0.018)" stroke-width="1"/><line x1="1512" y1="0" x2="1012" y2="500" stroke="rgba(255,255,255,0.018)" stroke-width="1"/><line x1="1540" y1="0" x2="1040" y2="500" stroke="rgba(255,255,255,0.018)" stroke-width="1"/><line x1="1568" y1="0" x2="1068" y2="500" stroke="rgba(255,255,255,0.018)" stroke-width="1"/><line x1="1596" y1="0" x2="1096" y2="500" stroke="rgba(255,255,255,0.018)" stroke-width="1"/><line x1="1624" y1="0" x2="1124" y2="500" stroke="rgba(255,255,255,0.018)" stroke-width="1"/><line x1="1652" y1="0" x2="1152" y2="500" stroke="rgba(255,255,255,0.018)" stroke-width="1"/><line x1="1680" y1="0" x2="1180" y2="500" stroke="rgba(255,255,255,0.018)" stroke-width="1"/><line x1="1708" y1="0" x2="1208" y2="500" stroke="rgba(255,255,255,0.018)" stroke-width="1"/><line x1="1736" y1="0" x2="1236" y2="500" stroke="rgba(255,255,255,0.018)" stroke-width="1"/><line x1="1764" y1="0" x2="1264" y2="500" stroke="rgba(255,255,255,0.018)" stroke-width="1"/><line x1="1792" y1="0" x2="1292" y2="500" stroke="rgba(255,255,255,0.018)" stroke-width="1"/><ellipse cx="400" cy="580" rx="520.0" ry="350.0" fill="none" stroke="rgba(255,255,255,0.06)" stroke-width="2"/><rect x="0" y="360" width="800" height="500" fill="rgba(0,0,0,0.3)"/><ellipse cx="400" cy="250" rx="180" ry="240" fill="rgba(26,111,232,0.08)"/><circle cx="400" cy="205" r="23" fill="rgba(255,255,255,0.92)"/><path d="M377 237 Q400 227 423 237 L415 323 L385 323 Z" fill="rgba(255,255,255,0.92)"/><path d="M385 323 L377 367 L389 367 L400 333 Z" fill="rgba(255,255,255,0.92)"/><path d="M415 323 L423 367 L411 367 L400 333 Z" fill="rgba(255,255,255,0.92)"/><path d="M377 237 L333 267 L353 287 L387 272 Z" fill="rgba(255,255,255,0.92)"/><path d="M423 237 L467 267 L447 287 L413 272 Z" fill="rgba(255,255,255,0.92)"/><rect x="330" y="180" width="140" height="22" fill="#D4AF37" rx="4" opacity="0.9"/><text x="400" y="196" font-family="Arial Narrow,sans-serif" font-size="10" font-weight="700" fill="#0D1117" text-anchor="middle" letter-spacing="2">ACS CHAMPION</text><path d="M340 250 Q300 200 260 170 L275 155 Q315 185 355 235 Z" fill="rgba(255,255,255,0.85)"/><path d="M460 250 Q500 200 540 170 L525 155 Q485 185 445 235 Z" fill="rgba(255,255,255,0.85)"/><ellipse cx="400" cy="50" rx="380" ry="80" fill="rgba(255,200,50,0.08)"/><rect x="0" y="0" width="110" height="32" fill="#1A6FE8"/><text x="12" y="22" font-family="Arial Narrow,sans-serif" font-size="14" font-weight="700" fill="#fff" letter-spacing="3">ACS 23</text><rect x="0" y="444" width="800" height="56" fill="rgba(0,0,0,0.7)"/><text x="20" y="470" font-family="Arial Narrow,sans-serif" font-size="18" font-weight="700" fill="#ffffff" letter-spacing="1">DARIUS KANE</text><text x="20" y="489" font-family="Arial Narrow,sans-serif" font-size="12" fill="rgba(255,255,255,0.5)" letter-spacing="2">ACS LIGHTWEIGHT CHAMPION · TWO TITLE DEFENCES</text></svg>