<svg xmlns="http://www.w3.org/2000/svg" viewBox="0 0 600 800" width="600" height="800">
<defs><linearGradient id="pg" x1="0" y1="0" x2="1" y2="1" gradientUnits="objectBoundingBox"><stop offset="0%" stop-color="#0D1117"/><stop offset="55%" stop-color="#1a2744"/><stop offset="100%" stop-color="#0D1117"/></linearGradient></defs>
<rect width="600" height="800" fill="url(#pg)"/>
<rect x="0" y="0" width="600" height="5" fill="#1A6FE8"/>
<rect x="0" y="795" width="600" height="5" fill="#1A6FE8"/>
<rect x="0" y="0" width="5" height="800" fill="#1A6FE8"/>
<rect x="595" y="0" width="5" height="800" fill="#1A6FE8"/><text x="40" y="50" font-family="Arial Narrow,sans-serif" font-size="11" font-weight="700" fill="#1A6FE8" letter-spacing="3">APEX COMBAT SERIES</text><rect x="40" y="65" width="120" height="28" fill="#1A6FE8" rx="2"/><text x="100" y="84" font-family="Arial Narrow,sans-serif" font-size="14" font-weight="700" fill="#fff" text-anchor="middle" letter-spacing="3">ACS 20</text><polygon points="300,90 320,155 390,155 335,195 355,260 300,220 245,260 265,195 210,155 280,155" fill="rgba(26,111,232,0.06)" stroke="rgba(26,111,232,0.12)" stroke-width="1"/><text x="300" y="200" font-family="Arial Black,sans-serif" font-size="72" fill="#ffffff" text-anchor="middle" letter-spacing="3">SUMMER</text><text x="300" y="276" font-family="Arial Black,sans-serif" font-size="72" fill="#1A6FE8" text-anchor="middle" letter-spacing="3">SHOWDOWN</text><rect x="40" y="295" width="520" height="1" fill="rgba(255,255,255,0.12)"/><text x="300" y="330" font-family="Arial Narrow,sans-serif" font-size="12" font-weight="700" fill="rgba(255,255,255,0.4)" text-anchor="middle" letter-spacing="4">WELTERWEIGHT CHAMPIONSHIP · MAIN EVENT</text><text x="130" y="420" font-family="Arial Black,sans-serif" font-size="46" fill="#ffffff" text-anchor="middle">MARCUS</text><text x="130" y="468" font-family="Arial Black,sans-serif" font-size="46" fill="#ffffff" text-anchor="middle">WEBB</text><text x="130" y="492" font-family="Arial Narrow,sans-serif" font-size="12" fill="#1A6FE8" text-anchor="middle" letter-spacing="3">11 – 3 – 1</text><line x1="55" y1="446" x2="210" y2="446" stroke="rgba(255,255,255,0.15)" stroke-width="1"/><text x="300" y="456" font-family="Arial Black,sans-serif" font-size="22" fill="#1A6FE8" text-anchor="middle">VS</text><line x1="390" y1="446" x2="545" y2="446" stroke="rgba(255,255,255,0.15)" stroke-width="1"/><text x="470" y="420" font-family="Arial Black,sans-serif" font-size="46" fill="rgba(255,255,255,0.7)" text-anchor="middle">FELIPE</text><text x="470" y="468" font-family="Arial Black,sans-serif" font-size="46" fill="rgba(255,255,255,0.7)" text-anchor="middle">MONTEIRO</text><text x="470" y="492" font-family="Arial Narrow,sans-serif" font-size="12" fill="#6B7280" text-anchor="middle" letter-spacing="3">CHALLENGER</text><rect x="40" y="530" width="520" height="1" fill="rgba(255,255,255,0.12)"/><text x="300" y="590" font-family="Arial Black,sans-serif" font-size="38" fill="#ffffff" text-anchor="middle" letter-spacing="2">2 AUGUST 2025</text><text x="300" y="632" font-family="Arial Narrow,sans-serif" font-size="16" font-weight="600" fill="rgba(255,255,255,0.5)" text-anchor="middle" letter-spacing="3">INDIGO AT THE O2 · LONDON</text><text x="300" y="680" font-family="Arial Narrow,sans-serif" font-size="12" fill="rgba(255,255,255,0.25)" text-anchor="middle" letter-spacing="3">TICKETS: AXSTICKETS.COM</text></svg>