<svg xmlns="http://www.w3.org/2000/svg" viewBox="0 0 600 800" width="600" height="800">
<defs><linearGradient id="pg" x1="0" y1="0" x2="1" y2="1" gradientUnits="objectBoundingBox"><stop offset="0%" stop-color="#0a0e18"/><stop offset="55%" stop-color="#151e30"/><stop offset="100%" stop-color="#0a0e18"/></linearGradient></defs>
<rect width="600" height="800" fill="url(#pg)"/>
<rect x="0" y="0" width="600" height="5" fill="#1A6FE8"/>
<rect x="0" y="795" width="600" height="5" fill="#1A6FE8"/>
<rect x="0" y="0" width="5" height="800" fill="#1A6FE8"/>
<rect x="595" y="0" width="5" height="800" fill="#1A6FE8"/><text x="40" y="50" font-family="Arial Narrow,sans-serif" font-size="11" font-weight="700" fill="#1A6FE8" letter-spacing="3">APEX COMBAT SERIES</text><rect x="40" y="65" width="120" height="28" fill="#1A6FE8" rx="2"/><text x="100" y="84" font-family="Arial Narrow,sans-serif" font-size="14" font-weight="700" fill="#fff" text-anchor="middle" letter-spacing="3">ACS 21</text><line x1="0" y1="0" x2="0" y2="0" stroke="rgba(26,111,232,0.03)" stroke-width="1"/><line x1="0" y1="35" x2="35" y2="0" stroke="rgba(26,111,232,0.03)" stroke-width="1"/><line x1="0" y1="70" x2="70" y2="0" stroke="rgba(26,111,232,0.03)" stroke-width="1"/><line x1="0" y1="105" x2="105" y2="0" stroke="rgba(26,111,232,0.03)" stroke-width="1"/><line x1="0" y1="140" x2="140" y2="0" stroke="rgba(26,111,232,0.03)" stroke-width="1"/><line x1="0" y1="175" x2="175" y2="0" stroke="rgba(26,111,232,0.03)" stroke-width="1"/><line x1="0" y1="210" x2="210" y2="0" stroke="rgba(26,111,232,0.03)" stroke-width="1"/><line x1="0" y1="245" x2="245" y2="0" stroke="rgba(26,111,232,0.03)" stroke-width="1"/><line x1="0" y1="280" x2="280" y2="0" stroke="rgba(26,111,232,0.03)" stroke-width="1"/><line x1="0" y1="315" x2="315" y2="0" stroke="rgba(26,111,232,0.03)" stroke-width="1"/><line x1="0" y1="350" x2="350" y2="0" stroke="rgba(26,111,232,0.03)" stroke-width="1"/><line x1="0" y1="385" x2="385" y2="0" stroke="rgba(26,111,232,0.03)" stroke-width="1"/><line x1="0" y1="420" x2="420" y2="0" stroke="rgba(26,111,232,0.03)" stroke-width="1"/><line x1="0" y1="455" x2="455" y2="0" stroke="rgba(26,111,232,0.03)" stroke-width="1"/><line x1="0" y1="490" x2="490" y2="0" stroke="rgba(26,111,232,0.03)" stroke-width="1"/><line x1="0" y1="525" x2="525" y2="0" stroke="rgba(26,111,232,0.03)" stroke-width="1"/><line x1="0" y1="560" x2="560" y2="0" stroke="rgba(26,111,232,0.03)" stroke-width="1"/><line x1="0" y1="595" x2="595" y2="0" stroke="rgba(26,111,232,0.03)" stroke-width="1"/><line x1="0" y1="630" x2="630" y2="0" stroke="rgba(26,111,232,0.03)" stroke-width="1"/><line x1="0" y1="665" x2="665" y2="0" stroke="rgba(26,111,232,0.03)" stroke-width="1"/><text x="300" y="190" font-family="Arial Black,sans-serif" font-size="82" fill="#ffffff" text-anchor="middle" letter-spacing="2">GROUND</text><text x="300" y="272" font-family="Arial Black,sans-serif" font-size="82" fill="#1A6FE8" text-anchor="middle" letter-spacing="2">&amp; POUND</text><text x="300" y="308" font-family="Arial Narrow,sans-serif" font-size="12" font-weight="700" fill="rgba(255,255,255,0.3)" text-anchor="middle" letter-spacing="5">LIGHTWEIGHT CHAMPIONSHIP</text><rect x="40" y="324" width="520" height="1" fill="rgba(255,255,255,0.1)"/><rect x="40" y="344" width="240" height="3" fill="#1A6FE8"/><text x="40" y="406" font-family="Arial Black,sans-serif" font-size="54" fill="#ffffff">DARIUS</text><text x="40" y="460" font-family="Arial Black,sans-serif" font-size="54" fill="#1A6FE8">KANE</text><text x="40" y="483" font-family="Arial Narrow,sans-serif" font-size="11" fill="#6B7280" letter-spacing="3">ACS LIGHTWEIGHT CHAMPION</text><text x="560" y="406" font-family="Arial Black,sans-serif" font-size="54" fill="rgba(255,255,255,0.7)" text-anchor="end">PEDRO</text><text x="560" y="460" font-family="Arial Black,sans-serif" font-size="54" fill="rgba(255,255,255,0.5)" text-anchor="end">ESTEVES</text><text x="560" y="483" font-family="Arial Narrow,sans-serif" font-size="11" fill="#6B7280" text-anchor="end" letter-spacing="3">CHALLENGER</text><text x="300" y="440" font-family="Arial Black,sans-serif" font-size="36" fill="#ffffff" text-anchor="middle">VS</text><rect x="0" y="510" width="600" height="3" fill="rgba(217,48,37,0.5)"/><rect x="0" y="515" width="600" height="220" fill="rgba(0,0,0,0.25)"/><text x="300" y="585" font-family="Arial Black,sans-serif" font-size="40" fill="#ffffff" text-anchor="middle" letter-spacing="2">18 OCTOBER 2025</text><text x="300" y="628" font-family="Arial Narrow,sans-serif" font-size="16" font-weight="600" fill="rgba(255,255,255,0.5)" text-anchor="middle" letter-spacing="3">BRADFORD LIVE ARENA</text><text x="300" y="680" font-family="Arial Narrow,sans-serif" font-size="12" fill="rgba(255,255,255,0.2)" text-anchor="middle" letter-spacing="3">TICKETS: AXSTICKETS.COM</text></svg>