<svg xmlns="http://www.w3.org/2000/svg" viewBox="0 0 800 450" width="800" height="450"><defs><radialGradient id="ytbg" cx="40%" cy="45%" r="70%"><stop offset="0%" stop-color="#10182a"/><stop offset="100%" stop-color="#080c14"/></radialGradient></defs><rect width="800" height="450" fill="url(#ytbg)"/><ellipse cx="400" cy="225" rx="300" ry="200" fill="rgba(255,255,255,0.04)"/><circle cx="310" cy="175" r="35" fill="rgba(255,255,255,0.12)"/><path d="M265 215 Q310 196 355 215 L350 340 L270 340 Z" fill="rgba(255,255,255,0.1)"/><circle cx="490" cy="178" r="35" fill="rgba(200,210,230,0.1)"/><path d="M445 218 Q490 200 535 218 L530 340 L450 340 Z" fill="rgba(200,210,230,0.09)"/><ellipse cx="400" cy="220" rx="55" ry="40" fill="rgba(255,255,255,0.07)"/><text x="400" y="120" font-family="Arial Black,sans-serif" font-size="58" fill="rgba(255,255,255,0.08)" text-anchor="middle">ACS 21</text><circle cx="400" cy="225" r="42" fill="rgba(255,0,0,0.88)"/><polygon points="386,207 422,225 386,243" fill="#ffffff"/><rect x="0" y="0" width="130" height="38" fill="#1A6FE8"/><text x="14" y="26" font-family="Arial Narrow,sans-serif" font-size="16" font-weight="700" fill="#fff" letter-spacing="3">ACS 21</text><rect x="670" y="0" width="130" height="32" fill="rgba(255,0,0,0.85)"/><text x="735" y="22" font-family="Arial Narrow,sans-serif" font-size="13" font-weight="700" fill="#fff" text-anchor="middle" letter-spacing="1">HIGHLIGHTS</text><rect x="0" y="388" width="800" height="62" fill="rgba(0,0,0,0.75)"/><text x="20" y="416" font-family="Arial Narrow,sans-serif" font-size="20" font-weight="700" fill="#ffffff">ACS 21: Ground & Pound</text><text x="20" y="438" font-family="Arial Narrow,sans-serif" font-size="13" fill="rgba(255,255,255,0.5)" letter-spacing="2">18 Oct 2025 · Bradford Live Arena</text></svg>